<svg xmlns="http://www.w3.org/2000/svg" viewBox="0 0 82.793 24.165">
  <defs>
    <style>
      .cls-1 {
        fill: #fff;
      }
    </style>
  </defs>
  <g id="Group_3145" data-name="Group 3145" transform="translate(-5.459)">
    <g id="Group_3136" data-name="Group 3136" transform="translate(34.773 6.886)">
      <path id="Path_2113" data-name="Path 2113" class="cls-1" d="M108.8,25.841c.032-1.191-.1-2.381-1.77-2.381-1.03,0-1.673.354-1.673,1.255,0,1.03.772,1.416,1.738,1.931a26.825,26.825,0,0,1,3.7,2.22,3.264,3.264,0,0,1,1.384,2.832c0,2.542-2.027,3.893-5.02,3.893-3.636,0-4.955-1.673-4.955-4.087v-1h3.057v.74c-.064,1.319.418,2.252,1.9,2.252,1.287,0,1.9-.547,1.9-1.577a2,2,0,0,0-1.223-1.77c-1.577-1.03-3.572-1.77-4.794-3.121a3.219,3.219,0,0,1-.772-2.059c0-2.285,1.577-3.572,4.794-3.572,4.859,0,4.73,3.089,4.73,4.408H108.8Z" transform="translate(-102.2 -21.4)"/>
      <path id="Path_2114" data-name="Path 2114" class="cls-1" d="M142.553,42.561a1.445,1.445,0,0,1-.161-1.03h-.032a3.539,3.539,0,0,1-1.126.965,2.822,2.822,0,0,1-1.351.354c-2.285,0-3.282-.965-3.282-3.025,0-2.317,1.963-2.864,4.183-3.636,1.191-.418,1.641-.869,1.384-1.673-.129-.45-.579-.515-1.319-.515-1.287,0-1.512.547-1.48,1.48h-2.7c-.032-1.931.74-3.282,4.28-3.282,3.861,0,4.087,1.673,4.054,2.993v5.953a5.209,5.209,0,0,0,.225,1.416Zm-.418-5.341c-.708.386-1.545.8-2.285,1.287a1.4,1.4,0,0,0-.483,1.223c0,.772.29,1.287,1.319,1.287,1.673,0,1.384-1.738,1.448-2.7Z" transform="translate(-125.531 -28.725)"/>
      <path id="Path_2115" data-name="Path 2115" class="cls-1" d="M171.328,43.616a.484.484,0,0,0,.322.45,2.249,2.249,0,0,0,.869.129c1.191,0,1.416-.8,1.416-1.577V41.46l-.032-.032a2.72,2.72,0,0,1-2.574,1.319c-2.381,0-2.864-1.77-2.928-3.411V35.7c.064-2.8,1.094-3.572,2.928-3.6a2.241,2.241,0,0,1,2.445,1.319h.032v-1.03h2.832V42.2c0,2.059-.708,3.733-4.569,3.733-1.866,0-3.411-.579-3.572-2.285h2.832Zm1.158-9.75c-1.319,0-1.191.965-1.287,1.963v3.379c.064.965.354,1.738,1.255,1.738s1.384-.644,1.384-1.8V36.119C173.838,35.314,173.806,33.866,172.487,33.866Z" transform="translate(-147.098 -28.653)"/>
      <path id="Path_2116" data-name="Path 2116" class="cls-1" d="M200.8,24.624V22.5h2.832v2.124Zm0,11.359V25.846h2.832V35.982Z" transform="translate(-169.073 -22.146)"/>
      <path id="Path_2117" data-name="Path 2117" class="cls-1" d="M216.578,39.147c-.225,1.866.644,1.8,1.319,1.8.8,0,1.384-.483,1.158-1.126-.032-.579-.837-.9-1.384-1.191l-1.545-.869c-1.416-.8-2.317-1.738-2.317-3.186,0-1.577,1.512-2.478,4.215-2.478,2.735,0,3.99,1.191,3.926,3.346H219.12c.064-1.126-.322-1.577-1.319-1.577-.676,0-1.191.257-1.191.837s.515.869,1.062,1.158l2.317,1.287c.708.354,1.834,1.319,1.931,2,.225,1.77-.29,3.6-4.183,3.6-1.512,0-4.312-.515-3.99-3.6h2.832Z" transform="translate(-177.836 -28.657)"/>
      <path id="Path_2118" data-name="Path 2118" class="cls-1" d="M248.506,41.524h-.032a2.512,2.512,0,0,1-2.639,1.77c-2.252,0-2.735-.965-2.735-2.639V32.9h2.832v6.95a2,2,0,0,0,.29,1.351,1.165,1.165,0,0,0,.869.322c1.319,0,1.319-1.255,1.319-2.027V32.9h2.832V43.036h-2.7V41.524Z" transform="translate(-197.762 -29.2)"/>
    </g>
    <g id="Group_3137" data-name="Group 3137" transform="translate(5.459)">
      <path id="Path_2119" data-name="Path 2119" class="cls-1" d="M35.867,9.621H47L41.466,0H30.3Z" transform="translate(-24.122)"/>
      <path id="Path_2120" data-name="Path 2120" class="cls-1" d="M22.233,10.821,16.667,1.2,11.1,10.821l5.567,9.653Z" transform="translate(-11.1 -0.814)"/>
      <path id="Path_2121" data-name="Path 2121" class="cls-1" d="M35.967,32.1,30.4,41.785H41.533L47.1,32.1Z" transform="translate(-24.19 -21.771)"/>
    </g>
  </g>
</svg>
